# xmcd
#
# Track frame offsets:
#	150
#	8499
#	19510
#	25360
#	31023
#	40063
#	47726
#	62335
#	71228
#	86172
#	91930
#	108196
#	121161
#	131733
#	140921
#	150004
#	158080
#	167880
#	175251
#
# Disc length: 2680 seconds
#
# Revision: 1
# Processed by: cddbd v1.5.2PL0 Copyright (c) Steve Scherf et al.
# Submitted via: audiograbber 1.81.03
#
DISCID=e60a7613
DTITLE=Afrika Erzählt - Atilopenmond - Liebeslyrik Zu Den Klängen Westafrikas
DYEAR=2007
DGENRE=Speech
TTITLE0=Meine Liebste
TTITLE1=Sex Wie Licht
TTITLE2=Wie Von Liebe Sprechen
TTITLE3=Principe Mon Amour
TTITLE4=Eine Hand Aus Licht
TTITLE5=Brief Eines Wanderarbeiters
TTITLE6=Überlassen Von Liebe
TTITLE7=Weshalb Zögerst Du
TTITLE8=Mantel Der Morgenröte
TTITLE9=Liebeslied
TTITLE10=Liebestrank
TTITLE11=Verliebt In Einen Stuhl
TTITLE12=Nichts Weiß Ich
TTITLE13=Zusammenleben
TTITLE14=Mein Land Ist Eine Musik
TTITLE15=Schwarzes, Weißes Mädchen
TTITLE16=Du Schläfst
TTITLE17=Sei Immer Wie An Diesem Tag
TTITLE18=Du Kommst Wieder
EXTD=
EXTT0=
EXTT1=
EXTT2=
EXTT3=
EXTT4=
EXTT5=
EXTT6=
EXTT7=
EXTT8=
EXTT9=
EXTT10=
EXTT11=
EXTT12=
EXTT13=
EXTT14=
EXTT15=
EXTT16=
EXTT17=
EXTT18=
PLAYORDER=
